<?xml version="1.0" encoding="utf-8"?>
<!-- Generator: Adobe Illustrator 15.1.0, SVG Export Plug-In . SVG Version: 6.00 Build 0)  -->
<!DOCTYPE svg PUBLIC "-//W3C//DTD SVG 1.1//EN" "http://www.w3.org/Graphics/SVG/1.1/DTD/svg11.dtd">
<svg version="1.1" id="Ebene_1" xmlns="http://www.w3.org/2000/svg" xmlns:xlink="http://www.w3.org/1999/xlink" x="0px" y="0px"
	 width="1300px" height="424px" viewBox="0 0 1300 424" enable-background="new 0 0 1300 424" xml:space="preserve">
<g transform="translate(0.000000,424.000000) scale(0.100000,-0.100000)">
	<path d="M19.998,2742.995V1264.997l452.998-455c248.008-250,528.008-532.998,621.006-627.002l170-172.998h1477.998h1477.998v170
		v170h-1400h-1400l-2.002,522.998l-2.998,522.002l-527.002,2.998l-527.998,2.002v1240v1240h1930h4389.092v170v170H2119.998h-2100
		V2742.995z"/>
	<path d="M7801.999,3906.003c-138.994-23.008-255.996-46.006-260.996-52.002c-5-5-36.006-126.006-69.004-269.004
		c-33.994-142.998-140-592.998-235.996-1000c-96.006-407.002-182.002-785.996-190-840.996
		c-22.998-144.004-21.006-331.006,2.998-426.006c55.996-218.994,192.998-351.992,417.998-405
		c111.006-25.996,441.006-25.996,562.998,0c86.006,19.004,284.004,80,308.008,95c10.996,7.002,10,46.006-6.006,216.006
		c-10,112.998-20.996,208.994-23.994,210.996c-3.008,2.998-26.006-3.994-52.002-15c-26.006-10.996-90-32.002-144.004-47.002
		c-82.002-22.998-115.996-26.992-222.002-26.992c-135.996,0.996-185,12.998-247.998,60.996c-57.002,42.998-75.996,100-75,222.998
		c1.006,125,10,171.006,142.998,720c55,227.998,102.002,425,105,437.998l5,22.002h378.008h377.998l47.998,202.998
		c25.996,111.006,50,210,52.002,220c5,16.006-17.002,17.002-370,17.002c-207.002,0-376.006,2.998-376.006,6.006
		c0,2.998,36.006,155.996,80,337.998c44.004,182.998,80,337.998,80,343.994C8089.997,3954.001,8094.001,3954.001,7801.999,3906.003z
		"/>
	<path d="M5614.997,3294.001c-248.994-46.006-453.994-157.998-640-349.004c-202.998-207.998-345-487.002-410-810.996
		c-93.994-465-20-817.002,221.006-1044.004c135-127.002,300-188.994,528.994-197.002c234.004-8.994,398.008,23.008,580,112.002
		c359.004,176.006,615,517.998,725,967.998c168.008,684.004-27.998,1180-515,1308.008
		C5998.005,3309.001,5733.005,3316.999,5614.997,3294.001z M5876.003,2846.999c157.998-32.998,238.994-142.998,265.996-362.998
		c27.998-234.004-47.998-567.998-182.998-797.998c-62.998-106.006-205.996-246.006-297.998-290c-127.002-61.006-275-70-396.006-25
		c-61.992,22.998-125.996,86.992-155.996,155c-67.998,152.998-65,428.994,7.002,683.994c35,121.006,140.996,331.006,207.998,412.998
		C5481.003,2811.003,5673.005,2889.001,5876.003,2846.999z"/>
	<path d="M9904.001,3294.997c-480-83.994-879.004-448.994-1047.998-955.996c-97.998-294.004-117.002-622.998-50-856.006
		c85-295,277.002-480,580-558.994c122.002-32.002,370-42.998,535-24.004c142.998,16.006,447.998,97.002,508.994,135
		c7.002,4.004-32.998,422.002-40.996,430c-4.004,2.998-27.002-3.994-52.998-15c-70-28.994-200-67.002-301.006-85.996
		c-110.996-21.006-343.994-24.004-430-5c-198.994,42.998-302.998,162.002-312.998,355.996l-5,92.002l139.004,7.002
		c183.994,8.994,477.002,42.002,590.996,67.002c432.002,93.994,709.004,302.998,790,600
		c12.998,46.992,17.998,101.992,17.998,208.994c0,126.006-2.998,154.004-22.998,212.002
		c-65,187.002-222.998,327.998-432.002,382.998C10281.003,3309.001,10014.997,3314.001,9904.001,3294.997z M10198.005,2844.997
		c86.992-35,136.992-122.002,130-225c-19.004-255-270-378.994-852.002-420c-77.002-5-142.002-7.998-144.004-5
		c-8.994,7.998,41.006,152.002,77.998,227.002c120,240.996,311.006,397.998,533.008,437.998
		C10014.997,2872.995,10148.005,2864.997,10198.005,2844.997z"/>
	<path d="M11946.998,3294.997c-247.002-40-418.994-122.998-547.002-262.998c-111.992-122.002-170-282.002-170-469.004
		c0-176.992,53.008-305.996,170-416.992c78.008-73.008,149.004-117.002,340-209.004
		c287.002-137.998,351.006-207.002,337.002-360.996c-13.994-160-170.996-242.002-457.002-240
		c-183.994,0.996-340,38.994-513.993,125.996c-42.998,22.002-79.004,37.998-81.006,35.996c-6.992-6.992-185-410.996-185-418.994
		c0-29.004,240-117.998,419.003-156.006c115.996-25,144.004-26.992,355.996-26.992c257.002,0,327.002,10.996,503.008,76.992
		c128.994,48.008,195,90,292.998,187.002c140,137.998,198.994,282.998,198.994,490c0,187.002-40,297.998-148.994,414.004
		c-72.998,77.002-145,122.002-386.006,243.994c-216.992,110-265,142.002-295.996,205c-30.996,60-24.004,166.006,15,224.004
		c65,97.002,180.996,137.998,385.996,135.996c154.004-0.996,270-25.996,413.008-86.992c43.994-20,81.992-34.004,82.998-33.008
		c3.994,5,183.994,407.002,183.994,412.002c0,17.998-181.992,82.998-325,116.006
		C12414.996,3307.995,12079,3316.999,11946.998,3294.997z"/>
	<path d="M3124.997,3294.001c-185-20-625.996-119.004-650.996-147.002c-6.006-5.996-127.002-492.998-267.998-1082.002
		c-141.006-587.998-259.004-1080-262.002-1092.002l-6.006-22.998h270h270l41.006,172.998c22.998,94.004,122.002,511.006,220,926.006
		c97.998,413.994,185,757.002,190.996,760.996c29.004,17.998,184.004,35,310,34.004c147.002-1.006,218.008-19.004,278.008-69.004
		c41.992-35,80.996-120.996,90-197.002c15.996-132.998,3.994-198.994-226.006-1167.998l-107.998-455l265-2.998
		c145-0.996,265.996-0.996,267.998,0.996c7.002,7.002,294.004,1214.004,316.006,1327.002c28.994,152.998,30.996,421.006,3.994,520
		c-52.998,190-170,342.002-318.994,414.004c-135,65-206.006,77.998-438.008,80.996
		C3256.999,3296.999,3146.999,3296.003,3124.997,3294.001z"/>
</g>
</svg>
